Coordinates
version=1
nRows=4
nColumns=63
inDegrees=yes

Units are S.I. units (second, meters, Newtons, ...)
If the header above contains a line with 'inDegrees', this indicates whether rotational values are in degrees (yes) or radians (no).

endheader
time	pelvis_tilt	pelvis_list	pelvis_rotation	pelvis_tx	pelvis_ty	pelvis_tz	hip_flexion_r	hip_adduction_r	hip_rotation_r	knee_angle_r	knee_angle_r_beta	ankle_angle_r	subtalar_angle_r	mtp_angle_r	hip_flexion_l	hip_adduction_l	hip_rotation_l	knee_angle_l	knee_angle_l_beta	ankle_angle_l	subtalar_angle_l	mtp_angle_l	L5_S1_Flex_Ext	L5_S1_Lat_Bending	L5_S1_axial_rotation	L4_L5_Flex_Ext	L4_L5_Lat_Bending	L4_L5_axial_rotation	L3_L4_Flex_Ext	L3_L4_Lat_Bending	L3_L4_axial_rotation	L2_L3_Flex_Ext	L2_L3_Lat_Bending	L2_L3_axial_rotation	L1_L2_Flex_Ext	L1_L2_Lat_Bending	L1_L2_axial_rotation	L1_T12_Flex_Ext	L1_T12_Lat_Bending	L1_T12_axial_rotation	Abs_r3	Abs_r2	Abs_r1	Abs_t1	Abs_t2	neck_flexion	neck_bending	neck_rotation	arm_flex_r	arm_add_r	arm_rot_r	elbow_flex_r	pro_sup_r	wrist_flex_r	wrist_dev_r	arm_flex_l	arm_add_l	arm_rot_l	elbow_flex_l	pro_sup_l	wrist_flex_l	wrist_dev_l
      2.00000000	     -1.96820300	      3.01269366	     78.93393606	      0.23076722	      0.96719239	      0.53167390	     -2.72148838	     -3.21470759	     -4.23897960	      7.67449005	      0.13394512	     23.25870137	     16.64585164	      0.00000000	     -3.26849439	      2.10300898	     -8.19853585	      5.82951427	      0.10174422	     20.75282376	     -2.78184644	      0.00000000	      0.29533984	     -1.30571115	      1.01254921	      0.54847561	     -1.73659583	      1.07583353	      0.48521382	     -3.17470610	      1.07583353	      0.33754390	     -3.17470610	      0.88598056	      0.27425257	     -2.66260618	      0.82269623	      0.16875718	     -2.02254658	      0.75941190	      2.10958292	    -14.77046571	      5.63149492	      0.00000000	      0.00000000	     28.09779639	      4.48080756	    -33.53043758	     60.05631716	    -24.38117511	     -8.31573375	    140.57198842	     86.67272147	      8.82647741	      6.11483522	     23.72509876	     -8.62622537	    173.22659135	      8.91088051	     14.51675670	     -5.83576310	      7.64164039
      2.01694915	     -2.08383537	      3.20233556	     78.28403369	      0.23161053	      0.96741470	      0.53053327	     -2.93016266	     -3.40877315	     -3.48344321	      7.57468049	      0.13220311	     23.11306223	     16.54810416	      0.00000000	     -3.65228311	      2.37005734	     -8.51961522	      5.53384659	      0.09658384	     20.44714150	     -3.41115092	      0.00000000	      0.29221984	     -1.30520198	      1.09111692	      0.54268147	     -1.73591864	      1.15931173	      0.48008798	     -3.17346810	      1.15931173	      0.33397806	     -3.17346810	      0.95472730	      0.27135535	     -2.66156788	      0.88653250	      0.16697442	     -2.02175787	      0.81833769	      2.08729713	    -14.76470588	      6.06846497	      0.00000000	      0.00000000	     28.10500781	      4.12116569	    -33.11699222	     60.52815359	    -23.81830254	     -7.89966117	    140.38565122	     86.26477303	      9.45506270	      7.13377853	     23.41912962	     -8.69830854	    173.97797217	      8.38697939	     14.50129072	     -5.54742619	      7.63311892
      2.03389831	     -2.20969568	      3.36306621	     77.67754213	      0.23240867	      0.96759854	      0.52944591	     -3.11356773	     -3.61215941	     -2.78485018	      7.46410140	      0.13027315	     22.99084540	     16.48671850	      0.00000000	     -3.99757393	      2.64253106	     -8.77991695	      5.26983798	      0.09197602	     20.02925213	     -3.98001364	      0.00000000	      0.27933220	     -1.31143415	      1.18389966	      0.51874782	     -1.74420742	      1.25789339	      0.45891487	     -3.18862100	      1.25789339	      0.31924877	     -3.18862100	      1.03591221	      0.25938788	     -2.67427653	      0.96191848	      0.15961042	     -2.03141150	      0.88792475	      1.99524195	    -14.83520543	      6.58449477	      0.00000000	      0.00000000	     28.08645369	      3.27054473	    -33.39227860	     60.96453411	    -23.51087595	     -7.60431572	    140.32284071	     85.35877830	     10.28930854	      8.32624028	     23.12001514	     -8.78209215	    174.77702523	      7.67357217	     14.70156194	     -5.85187261	      7.83015924
      2.05084746	     -2.41975938	      3.47090238	     77.49176876	      0.23273899	      0.96779925	      0.52804058	     -3.34070488	     -3.87265300	     -2.65838612	      7.25982724	      0.12670789	     22.89416484	     16.52240532	      0.00000000	     -4.18010242	      2.92790743	     -8.88993734	      5.23531146	      0.09137342	     19.53551325	     -4.04101279	      0.00000000	      0.27792956	     -1.33139918	      1.22700976	      0.51614299	     -1.77076092	      1.30369787	      0.45661047	     -3.23716398	      1.30369787	      0.31764569	     -3.23716398	      1.07363354	      0.25808539	     -2.71498922	      0.99694543	      0.15880895	     -2.06233734	      0.92025732	      1.98522305	    -15.06105386	      6.82426020	      0.00000000	      0.00000000	     28.07160892	      2.54019925	    -33.49090576	     61.12589281	    -23.47652847	     -7.20590731	    140.27907644	     84.91928332	     10.53153725	      8.65972115	     22.76940235	     -8.96725118	    174.95226670	      6.86528638	     14.83574054	     -6.20730804	      8.01214874
